<?xml version="1.0" encoding="iso-8859-1"?>
<!-- Generator: Adobe Illustrator 21.0.0, SVG Export Plug-In . SVG Version: 6.00 Build 0)  -->
<svg xmlns="http://www.w3.org/2000/svg" xmlns:xlink="http://www.w3.org/1999/xlink" version="1.1" id="Capa_1" x="0px" y="0px" viewBox="0 0 512 512" style="enable-background:new 0 0 512 512;" xml:space="preserve" width="512" height="512">
<g>
	<g>
		<circle style="fill:#0053BF;" cx="256" cy="256" r="256"/>
	</g>
	<path style="fill:#1B3B6B;" d="M512,256c0-3.313-0.083-6.606-0.208-9.888l-95.731-95.731L78.642,234.589l45.683,45.683   l-56.589,13.951l57.372,57.372l-40.569,10.818l148.556,148.556C240.642,511.638,248.278,512,256,512   C397.385,512,512,397.385,512,256z"/>
	<g>
		<path style="fill:#FFCE00;" d="M407.349,369.197H104.65c-18.349,0-33.223-14.874-33.223-33.223v0    c0-18.349,14.874-33.223,33.223-33.223h302.699c18.349,0,33.223,14.874,33.223,33.223v0    C440.572,354.323,425.698,369.197,407.349,369.197z"/>
	</g>
	<g>
		<path style="fill:#FFA300;" d="M407.349,302.751H255.595v66.446h151.754c18.349,0,33.223-14.875,33.223-33.223v0    C440.573,317.625,425.698,302.751,407.349,302.751z"/>
	</g>
	<g>
		<path style="fill:#FA5D0F;" d="M423.509,302.751H88.491c-16.31,0-29.532-13.222-29.532-29.532v0    c0-16.31,13.222-29.532,29.532-29.532h335.018c16.31,0,29.532,13.222,29.532,29.532v0    C453.041,289.529,439.819,302.751,423.509,302.751z"/>
	</g>
	<g>
		<path style="fill:#D13400;" d="M423.509,243.688H255.595v59.063h167.914c16.31,0,29.532-13.222,29.532-29.532v0    C453.041,256.909,439.819,243.688,423.509,243.688z"/>
	</g>
	<g>
		<path style="fill:#93D632;" d="M380,280.777L380,280.777c-26.786,0-48.5-21.714-48.5-48.5v-5.089h97v5.089    C428.5,259.063,406.786,280.777,380,280.777z"/>
	</g>
	<g>
		<g>
			<path style="fill:#77DD00;" d="M331.5,280.777L331.5,280.777c-26.786,0-48.5-21.714-48.5-48.5v-5.089h97v5.089     C380,259.063,358.286,280.777,331.5,280.777z"/>
		</g>
	</g>
	<g>
		<path style="fill:#FFCE00;" d="M444.264,209.644c0-50.515-84.289-130.841-188.264-130.841S67.736,159.129,67.736,209.644    c0,0.649,0.014,1.289,0.042,1.921c0.792,18.097,16.209,32.122,34.323,32.122h307.799c18.114,0,33.531-14.025,34.323-32.122    C444.25,210.933,444.264,210.293,444.264,209.644z"/>
	</g>
	<g>
		<path style="fill:#FFA300;" d="M256,78.803c-0.135,0-0.27,0.005-0.405,0.005v164.88h154.304c18.114,0,33.531-14.025,34.323-32.122    c0.028-0.632,0.042-1.273,0.042-1.921C444.264,159.129,359.975,78.803,256,78.803z"/>
	</g>
</g>















</svg>
