<svg height="389pt" viewBox="-3 0 389 389.12019" width="389pt" xmlns="http://www.w3.org/2000/svg"><path d="m324.328125 232.105469h-4.867187c.925781-3.257813 1.453124-20.339844 1.453124-23.890625 0-20.738282-16.8125-37.546875-37.546874-37.546875h-16.769532c3.160156-4.703125 5.035156-10.289063 5.035156-16.320313 0-16.554687-13.847656-29.972656-30.933593-29.972656h-22.683594c-53.617187-11.988281-57.742187-59.945312-57.742187-59.945312-35.589844 17.246093-45.546876 45.425781-48.355469 59.945312l-1.136719 21.121094c0 9.617187 3.621094 18.390625 9.59375 25.171875h-21.328125c-20.734375 0-37.546875 16.8125-37.546875 37.546875 0 3.554687.527344 20.632812 1.449219 23.894531h-4.863281c-28.273438 0-51.199219 29.75-51.199219 58.027344 0 28.273437 22.925781 58.023437 51.199219 58.023437h17.066406v17.070313c0 9.425781 7.640625 17.066406 17.066406 17.066406s17.066406-7.640625 17.066406-17.066406v-17.070313h215.042969c28.273437 0 51.199219-29.75 51.199219-58.023437 0-28.277344-22.925782-58.03125-51.199219-58.03125zm0 0" fill="#adf2a2"/><path d="m324.328125 232.105469v-6.824219h-4.867187v6.824219l6.570312 1.863281c.289062-1.046875.394531-1.832031.527344-2.792969.417968-3.230469.683594-7.976562.882812-12.527343.195313-4.542969.296875-8.660157.296875-10.433594-.003906-24.511719-19.863281-44.371094-44.375-44.375h-16.769531v6.828125l5.667969 3.808593c3.859375-5.730468 6.199219-12.671874 6.195312-20.128906.007813-10.207031-4.292969-19.484375-11.132812-26.097656-6.835938-6.628906-16.28125-10.703125-26.625-10.703125h-22.683594v6.828125l1.492187-6.664062c-12.480468-2.796876-21.792968-7.585938-28.9375-13.148438-10.6875-8.332031-16.574218-18.578125-19.808593-26.820312-1.613281-4.113282-2.546875-7.703126-3.070313-10.207032-.261718-1.253906-.421875-2.234375-.511718-2.871094l-.089844-.695312-.015625-.136719-.828125.082031.828125-.074218v-.007813l-.828125.082031.828125-.074218c-.191407-2.226563-1.484375-4.242188-3.429688-5.347656-1.941406-1.105469-4.335937-1.183594-6.347656-.210938-18.894531 9.140625-31.300781 21.425781-39.1875 33.375-7.90625 11.949219-11.363281 23.5-12.894531 31.421875l-.117188.929687-1.136718 21.117188-.007813.367188c-.007813 11.351562 4.300781 21.757812 11.296875 29.683593l5.121094-4.507812v-6.828125h-21.324219c-24.507813.003906-44.367187 19.863281-44.375 44.375.003906 2.015625.136719 7.136718.390625 12.382812.125 2.617188.28125 5.230469.46875 7.476563.097656 1.125.199219 2.160156.324219 3.101562.132812.960938.242187 1.746094.527343 2.792969l6.566407-1.863281v-6.824219h-4.863281c-16.621094.019531-31.1875 8.699219-41.417969 20.832031-10.253907 12.183594-16.574219 28.03125-16.6093752 44.019531.0351562 15.988282 6.3554682 31.839844 16.6093752 44.023438 10.230469 12.132812 24.796875 20.808594 41.417969 20.832031h10.242187v10.238281c.003906 13.199219 10.691406 23.890626 23.890625 23.894532 13.199219-.003906 23.890625-10.695313 23.894531-23.894532v-10.238281h208.214844c16.621094-.023437 31.1875-8.699219 41.417969-20.832031 10.253906-12.183594 16.574218-28.03125 16.605468-44.023438-.03125-15.988281-6.351562-31.835937-16.605468-44.019531-10.230469-12.132812-24.796875-20.8125-41.417969-20.832031v13.652344c11.65625-.019532 22.6875 6.175781 30.988281 15.988281 8.277344 9.761719 13.417969 22.925781 13.382813 35.214844.035156 12.285156-5.105469 25.453125-13.382813 35.210937-8.300781 9.8125-19.332031 16.007813-30.988281 15.988282h-215.042969c-1.796875 0-3.554687.726562-4.824218 1.996093-1.273438 1.273438-2 3.03125-2 4.828125v17.066406c-.011719 5.65625-4.585938 10.230469-10.242188 10.242188-5.652344-.011719-10.226562-4.585938-10.238281-10.242188v-17.066406c0-1.796875-.730469-3.558594-2-4.828125s-3.03125-2-4.828125-2h-17.066406c-11.65625.023438-22.6875-6.175781-30.988282-15.988281-8.277344-9.757812-13.417968-22.921875-13.382812-35.210938-.035156-12.289062 5.105468-25.453124 13.382812-35.214843 8.300782-9.808594 19.332032-16.003907 30.988282-15.984375h4.863281c2.144531 0 4.152343-1 5.449219-2.707032 1.292968-1.710937 1.703124-3.917968 1.121093-5.976562l-.875.246094.890625-.195313-.015625-.050781-.875.246094.886719-.195313c-.074219-.261719-.296875-1.980469-.441406-3.945312-.488282-6.03125-.769532-15.871094-.765625-18.136719.003906-8.507812 3.429687-16.144531 9-21.722656 5.578125-5.570313 13.214843-8.996094 21.722656-9h21.324219c2.675781 0 5.117187-1.574219 6.222656-4.015625 1.101562-2.4375.667969-5.3125-1.097656-7.324219-4.945313-5.628906-7.886719-12.777344-7.890625-20.660156h-6.828125l6.816406.367187 1.136719-21.121093-6.816407-.367188 6.703126 1.300781c1.273437-6.601562 4.203124-16.402343 10.875-26.480469 6.691406-10.085937 17.0625-20.515624 33.757812-28.621093l-2.976562-6.144531-6.804688.585937c.070312.609375 1.191406 13.492187 9.644531 28.289063 4.234375 7.382812 10.34375 15.234374 19.0625 22.03125 8.710938 6.800781 20.019531 12.503906 34.351563 15.703124l1.488281.164063h22.683594c6.742187.003906 12.761719 2.636719 17.125 6.855469 4.355469 4.234375 6.976562 9.941406 6.984375 16.292968-.003906 4.601563-1.417969 8.84375-3.878906 12.511719-1.410157 2.09375-1.546876 4.789063-.359376 7.015625 1.1875 2.230469 3.5 3.617188 6.023438 3.617188h16.773438c8.503906.003906 16.140624 3.429687 21.722656 9 5.570312 5.578125 8.992187 13.214844 8.996094 21.722656.003906 1.535156-.128907 6.730469-.371094 11.726562-.121094 2.507813-.269532 4.996094-.4375 6.980469-.082032.988281-.171875 1.851563-.253906 2.484375l-.109376.730469-.03125.160156.886719.195313-.875-.246094-.015625.050781.890625.195313-.875-.246094c-.585937 2.058594-.171875 4.265625 1.121094 5.976562 1.292969 1.707032 3.300781 2.707032 5.445313 2.707032h4.867187zm0 0" fill="#54596e"/><path d="m163.898438 215.039062c0 13.195313-10.695313 23.894532-23.890626 23.894532-13.195312 0-23.894531-10.699219-23.894531-23.894532 0-13.195312 10.699219-23.890624 23.894531-23.890624 13.195313 0 23.890626 10.695312 23.890626 23.890624zm0 0" fill="#fff"/><path d="m163.898438 215.039062h6.828124c-.003906-16.96875-13.75-30.714843-30.71875-30.71875-16.96875.003907-30.71875 13.75-30.722656 30.71875.003906 16.96875 13.753906 30.71875 30.722656 30.722657 16.96875-.003907 30.714844-13.753907 30.71875-30.722657h-13.652343c-.019531 9.425782-7.644531 17.050782-17.066407 17.066407-9.425781-.015625-17.050781-7.640625-17.066406-17.066407.015625-9.421874 7.640625-17.046874 17.066406-17.066406 9.421876.019532 17.046876 7.644532 17.066407 17.066406zm0 0" fill="#54596e"/><path d="m150.246094 215.039062c0 5.65625-4.582032 10.242188-10.238282 10.242188s-10.242187-4.585938-10.242187-10.242188c0-5.652343 4.585937-10.238281 10.242187-10.238281s10.238282 4.585938 10.238282 10.238281zm0 0" fill="#54596e"/><path d="m266.300781 215.039062c0 13.195313-10.699219 23.894532-23.894531 23.894532s-23.894531-10.699219-23.894531-23.894532c0-13.195312 10.699219-23.890624 23.894531-23.890624s23.894531 10.695312 23.894531 23.890624zm0 0" fill="#fff"/><g fill="#54596e"><path d="m266.300781 215.039062h6.824219c0-16.96875-13.75-30.714843-30.71875-30.71875-16.96875.003907-30.714844 13.75-30.71875 30.71875.003906 16.96875 13.75 30.71875 30.71875 30.722657 16.96875-.003907 30.71875-13.753907 30.71875-30.722657h-13.652344c-.015625 9.425782-7.640625 17.050782-17.066406 17.066407-9.421875-.015625-17.050781-7.640625-17.066406-17.066407.015625-9.421874 7.644531-17.046874 17.066406-17.066406 9.425781.019532 17.050781 7.644532 17.066406 17.066406zm0 0"/><path d="m252.648438 215.039062c0 5.65625-4.585938 10.242188-10.242188 10.242188s-10.238281-4.585938-10.238281-10.242188c0-5.652343 4.582031-10.238281 10.238281-10.238281s10.242188 4.585938 10.242188 10.238281zm0 0"/><path d="m368.699219 187.734375c0 5.65625-4.582031 10.238281-10.238281 10.238281s-10.242188-4.582031-10.242188-10.238281 4.585938-10.242187 10.242188-10.242187 10.238281 4.585937 10.238281 10.242187zm0 0"/><path d="m61.5 153.601562c0 5.652344-4.585938 10.238282-10.238281 10.238282-5.65625 0-10.242188-4.585938-10.242188-10.238282 0-5.65625 4.585938-10.242187 10.242188-10.242187 5.652343 0 10.238281 4.585937 10.238281 10.242187zm0 0"/><path d="m259.472656 30.71875c0 5.65625-4.582031 10.242188-10.238281 10.242188s-10.242187-4.585938-10.242187-10.242188c0-5.652344 4.585937-10.238281 10.242187-10.238281s10.238281 4.585937 10.238281 10.238281zm0 0"/><path d="m218.542969 1.273438c-.234375.175781-6.070313 4.332031-12.125 10.949218-3.027344 3.320313-6.125 7.265625-8.570313 11.796875-2.425781 4.519531-4.257812 9.714844-4.269531 15.4375-.0625 6.546875 2.695313 13.523438 8.445313 19.179688 4.441406 4.375 9.402343 7.378906 12.734374 10.335937 1.675782 1.449219 2.902344 2.808594 3.609376 3.996094.710937 1.214844 1.011718 2.160156 1.03125 3.566406 0 1.261719-.3125 3.019532-1.429688 5.484375-1.109375 2.457031-3.027344 5.566407-6.007812 9.289063-2.355469 2.945312-1.878907 7.242187 1.066406 9.597656 2.941406 2.355469 7.238281 1.875 9.59375-1.066406 3.492187-4.375 6.042968-8.355469 7.78125-12.179688 1.734375-3.816406 2.648437-7.53125 2.648437-11.125.019531-3.996094-1.199219-7.691406-2.996093-10.625-2.71875-4.4375-6.394532-7.398437-9.75-10.007812-3.378907-2.574219-6.554688-4.824219-8.625-6.917969-3.53125-3.628906-4.382813-6.445313-4.449219-9.523437-.007813-2.695313.921875-5.792969 2.640625-8.96875 2.542968-4.757813 6.757812-9.464844 10.332031-12.8125 1.78125-1.679688 3.394531-3.039063 4.542969-3.957032l1.328125-1.039062.335937-.246094.070313-.054688c3.070312-2.191406 3.78125-6.453124 1.589843-9.523437-2.195312-3.066406-6.460937-3.777344-9.527343-1.585937zm0 0"/><path d="m300.460938 49.058594c-.234376.175781-6.070313 4.332031-12.125 10.953125-3.023438 3.320312-6.121094 7.261719-8.566407 11.792969-2.429687 4.519531-4.257812 9.714843-4.269531 15.441406-.066406 6.542968 2.691406 13.523437 8.445312 19.175781 4.4375 4.375 9.402344 7.378906 12.734376 10.335937 1.671874 1.449219 2.898437 2.808594 3.609374 4 .707032 1.210938 1.007813 2.160157 1.03125 3.566407 0 1.261719-.316406 3.015625-1.429687 5.484375-1.113281 2.453125-3.027344 5.5625-6.011719 9.289062-2.355468 2.941406-1.875 7.238282 1.066406 9.59375 2.945313 2.355469 7.242188 1.878906 9.597657-1.066406 3.492187-4.371094 6.042969-8.355469 7.78125-12.179688 1.730469-3.8125 2.648437-7.527343 2.648437-11.121093.019532-4-1.199218-7.691407-3-10.628907-2.71875-4.4375-6.390625-7.394531-9.746094-10.003906-3.382812-2.578125-6.554687-4.824218-8.628906-6.921875-3.53125-3.625-4.378906-6.445312-4.445312-9.523437-.011719-2.695313.921875-5.792969 2.636718-8.964844 2.542969-4.761719 6.761719-9.464844 10.332032-12.816406 1.785156-1.679688 3.398437-3.039063 4.542968-3.957032l1.332032-1.035156.332031-.25.074219-.050781c3.066406-2.191406 3.777344-6.457031 1.585937-9.523437-2.195312-3.070313-6.457031-3.78125-9.527343-1.589844zm0 0"/><path d="m211.6875 286.71875c0-18.851562-9.171875-34.132812-20.480469-34.132812-11.3125 0-20.480469 15.28125-20.480469 34.132812s9.167969 34.136719 20.480469 34.136719c11.308594 0 20.480469-15.285157 20.480469-34.136719zm0 0"/><path d="m211.6875 286.71875h6.824219c-.015625-10.535156-2.5-20.152344-6.96875-27.648438-2.25-3.738281-5.023438-6.96875-8.433594-9.382812-3.382813-2.402344-7.515625-3.9375-11.90625-3.925781-4.386719-.011719-8.519531 1.523437-11.902344 3.925781-5.105469 3.632812-8.816406 9.042969-11.40625 15.382812-2.570312 6.359376-3.992187 13.746094-3.996093 21.648438.019531 10.535156 2.5 20.15625 6.972656 27.648438 2.25 3.742187 5.023437 6.972656 8.429687 9.382812 3.386719 2.40625 7.519531 3.941406 11.90625 3.929688 4.386719.011718 8.519531-1.523438 11.90625-3.929688 5.105469-3.628906 8.8125-9.039062 11.402344-15.378906 2.574219-6.359375 3.996094-13.75 3.996094-21.648438h-13.652344c.019531 8.3125-2.082031 15.761719-5.027344 20.621094-1.457031 2.4375-3.09375 4.203125-4.585937 5.25-1.515625 1.050781-2.769532 1.425781-4.039063 1.433594-1.269531-.007813-2.523437-.382813-4.039062-1.433594-2.246094-1.550781-4.789063-4.800781-6.617188-9.351562-1.84375-4.539063-3.003906-10.285157-3-16.519532-.019531-8.316406 2.082031-15.761718 5.027344-20.625 1.457031-2.4375 3.097656-4.203125 4.589844-5.246094 1.515625-1.050781 2.769531-1.425781 4.035156-1.4375 1.269531.011719 2.523437.386719 4.039063 1.4375 2.246093 1.546876 4.792968 4.796876 6.621093 9.351563 1.84375 4.535156 3 10.28125 2.996094 16.519531h6.828125zm0 0"/></g></svg>